<svg id="Capa_1" enable-background="new 0 0 512 512" height="512" viewBox="0 0 512 512" width="512" xmlns="http://www.w3.org/2000/svg"><path d="m7.5 422.126c0 7.788 5.799 14.346 13.524 15.337 46.373 5.952 50.859 42.179 105.467 42.179 59.494 0 59.494-43.002 118.988-43.002 59.502 0 59.502 43.002 119.004 43.002 54.614 0 59.101-36.228 105.48-42.179 7.725-.991 13.525-7.549 13.525-15.337v-78.928c-59.502 0-59.502 43.002-119.004 43.002s-59.502-43.002-119.004-43.002c-59.494 0-59.494 43.002-118.988 43.002-59.496 0-59.496-43.002-118.992-43.002v78.928z" fill="#90d8f9"/><path d="m479.748 343.263c-.272.009-.544.018-.814.028-1.217.047-2.415.109-3.582.193-.019.001-.037.003-.055.005-1.182.086-2.333.196-3.465.318-.166.018-.332.035-.496.054-47.661 5.409-51.707 42.339-106.852 42.339-59.502 0-59.502-43.002-119.004-43.002-59.494 0-59.494 43.002-118.988 43.002-59.496 0-59.496-43.002-118.992-43.002v21.501c59.496 0 59.496 43.002 118.992 43.002 59.494 0 59.494-43.002 118.988-43.002 59.502 0 59.502 43.002 119.004 43.002 32.388 0 47.148-12.739 63.47-24.35 16.752-11.917 39.978.132 39.978 20.691v33.708c.642-.097 1.293-.189 1.951-.274 7.756-1.004 13.605-7.53 13.605-15.351v-78.928c-1.277.001-2.517.028-3.74.066z" fill="#75cef9"/><path d="m364.483 444.14c-32.178 0-48.302-11.653-63.896-22.922-14.288-10.327-27.784-20.08-55.108-20.08-27.32 0-40.814 9.753-55.101 20.08-15.592 11.27-31.714 22.923-63.888 22.923s-48.297-11.653-63.889-22.922c-14.287-10.327-27.781-20.08-55.103-20.08-4.143 0-7.5-3.358-7.5-7.5s3.357-7.5 7.5-7.5c32.175 0 48.298 11.653 63.89 22.923 14.286 10.326 27.781 20.08 55.102 20.08s40.814-9.753 55.101-20.08c15.592-11.27 31.714-22.923 63.888-22.923 32.178 0 48.302 11.653 63.896 22.922 14.288 10.327 27.784 20.08 55.108 20.08s40.82-9.753 55.108-20.08c15.594-11.27 31.719-22.923 63.896-22.923 4.143 0 7.5 3.358 7.5 7.5s-3.357 7.5-7.5 7.5c-27.325 0-40.821 9.754-55.11 20.08-15.592 11.269-31.716 22.922-63.894 22.922z" fill="#d3effb"/><path d="m7.5 343.197c59.496 0 59.496 43.002 118.992 43.002 59.494 0 59.494-43.002 118.988-43.002 59.502 0 59.502 43.002 119.004 43.002s59.502-43.002 119.004-43.002l-13.135-6.545c-21.687-10.806-44.536-18.936-67.819-25.642-11.425-3.29-21.89-8.978-30.751-16.473-17.891-15.132-29.245-37.63-28.766-62.635.839-43.87 36.664-79.175 80.734-79.175 44.597 0 80.749 36.153 80.749 80.749v.669c0-113.739-94.102-205.5-208.699-201.673-109.129 3.645-194.879 95.018-194.879 204.208 0 39.599-23.346 75.475-59.552 91.513z" fill="#61a2f9"/><path d="m403.313 311.23c-11.729-3.253-22.468-9.028-31.53-16.693-17.891-15.132-29.245-37.63-28.766-62.635.668-34.934 23.531-64.415 55.066-74.984-8.067-2.704-16.691-4.19-25.668-4.19-44.071 0-79.895 35.305-80.734 79.175-.478 25.005 10.876 47.503 28.767 62.635 8.861 7.495 19.326 13.182 30.75 16.473.501.144 1 .289 1.496.433 27.747 8.074 33.378 45.154 9.09 60.81-6.647 4.284-13.928 8.11-22.967 10.665 7.238 2.046 15.599 3.28 25.668 3.28 59.502 0 59.502-43.002 119.004-43.002l-15.271-7.609c-20.739-10.333-42.578-18.165-64.905-24.358z" fill="#5490f9"/><path d="m295.801 32.473c-6.324.211-12.567.73-18.722 1.517 71.68 9.114 131.621 55.826 159.424 119.75 38.311 6.08 67.639 39.097 67.979 79.038-.753-113.104-94.545-204.116-208.681-200.305z" fill="#5490f9"/><path d="m504.5 233.478c0-.234-.016-.465-.018-.699.003.457.018.911.018 1.368z" fill="#34477a"/><path d="m171.564 250.34c-4.143 0-7.5-3.358-7.5-7.5 0-45.636 17.29-88.98 48.685-122.047 31.567-33.25 73.947-52.396 119.333-53.911 47.635-1.593 92.695 15.742 126.882 48.806 34.034 32.917 52.852 77.061 53.035 124.367.001.047.001.095.001.143v.552c0 4.142-3.357 7.5-7.5 7.5s-7.5-3.358-7.5-7.5c0-43.468-17.212-84.053-48.465-114.28-31.238-30.213-72.409-46.035-115.953-44.597-41.422 1.383-80.116 18.873-108.955 49.248-28.736 30.267-44.563 69.943-44.563 111.719 0 4.141-3.357 7.5-7.5 7.5z" fill="#90d8f9"/></svg>