<svg id="Capa_1" enable-background="new 0 0 512 512" height="512" viewBox="0 0 512 512" width="512" xmlns="http://www.w3.org/2000/svg"><path d="m268.785 504.5c18.094 0 34.155-11.443 40.222-28.489 54.774-153.909 40.839-341.883.757-440.999-6.741-16.668-23-27.513-40.979-27.513-17.98 0-34.239 10.844-40.979 27.513-40.081 99.115-54.017 287.09.757 440.999 6.067 17.046 22.129 28.489 40.222 28.489z" fill="#61a2f9"/><path d="m309.764 35.013c-6.74-16.668-23-27.513-40.979-27.513-4.37 0-8.638.646-12.693 1.855 12.627 3.766 23.185 13.041 28.286 25.658 40.081 99.115 54.017 287.089-.757 440.999-4.595 12.911-14.926 22.602-27.529 26.547 4.036 1.263 8.304 1.942 12.693 1.942 18.094 0 34.155-11.443 40.222-28.489 54.774-153.91 40.839-341.884.757-440.999z" fill="#5490f9"/><g fill="#90d8f9"><path d="m268.785 512c-4.142 0-7.5-3.358-7.5-7.5v-497c0-4.142 3.358-7.5 7.5-7.5s7.5 3.358 7.5 7.5v497c0 4.142-3.358 7.5-7.5 7.5z"/><path d="m268.785 341.089s-54.512-13.595-99.638 47.44c-6.68 9.034 2.479 21.326 12.96 17.278 27.945-10.79 66.843-19.152 86.678 6.481z"/></g></svg>