<svg id="Capa_1" enable-background="new 0 0 512 512" height="512" viewBox="0 0 512 512" width="512" xmlns="http://www.w3.org/2000/svg"><path d="m278.208 456.182c136.493-133.452 181.808-342.895 122.49-427.124-3.729-5.295-10.418-7.57-16.603-5.645-98.368 30.612-190.116 224.267-163.263 413.26z" fill="#61a2f9"/><path d="m384.125 23.406c-2.087.649-4.171 1.372-6.251 2.166 53.747 87.539 7.506 290.986-126.105 421.621l26.438 8.99c136.492-133.451 181.808-342.891 122.493-427.122-3.723-5.287-10.401-7.577-16.575-5.655z" fill="#5490f9"/><path d="m353.82 133.912c-4.915-.47-9.857.59-14.286 2.771l-87.804 43.244c-8.475 21.452-15.706 44.356-21.394 68.272l104.918-51.673c2.412-1.188 5.33-.196 6.518 2.216l46.89 95.207c9.918-22.991 17.901-46.069 23.918-68.663l-37.936-77.028c-3.917-7.95-11.701-13.473-20.824-14.346z" fill="#90d8f9"/><path d="m412.58 225.286-19.455-39.502c-4.628 24.196-11.658 49.29-21.029 74.528l16.566 33.636c9.418-21.83 17.6-44.94 23.918-68.662z" fill="#75cef9"/><path d="m225.679 446.681c86.265-170.288 61.743-383.169-21.533-443.819-5.236-3.813-12.301-3.813-17.536 0-83.276 60.649-107.798 273.531-21.533 443.819z" fill="#d82e3d"/><path d="m186.636 2.846c-1.767 1.287-3.507 2.642-5.221 4.063 79.067 65.577 100.782 273.079 16.338 439.772h27.925c86.264-170.286 61.744-383.164-21.53-443.817-5.226-3.807-12.285-3.825-17.512-.018z" fill="#c32430"/><path d="m116.162 288.717 155.759-155.759c-3.827-19.75-9.026-38.187-15.474-54.875l-145.297 145.297c.269 21.295 1.907 43.198 5.012 65.337z" fill="#dd636e"/><path d="m235.641 98.888c5.41 17.95 9.53 37.464 12.245 58.104l24.034-24.034c-1.061-4.577-5.046-27.888-15.474-54.875z" fill="#da4a54"/><path d="m341.579 512c7.622 0 12.314-8.338 8.354-14.85-22.726-37.374-72.999-70.148-131.365-70.148s-108.639 32.774-131.365 70.148c-3.96 6.512.732 14.85 8.354 14.85z" fill="#f4dd45"/><path d="m218.568 427.002c-8.092 0-16.027.634-23.756 1.818 55.317 8.48 100.011 45.38 115.075 83.18h31.692c7.622 0 12.314-8.338 8.354-14.85-22.726-37.374-72.999-70.148-131.365-70.148z" fill="#f1d333"/></svg>