<svg id="Capa_1" enable-background="new 0 0 512 512" height="512" viewBox="0 0 512 512" width="512" xmlns="http://www.w3.org/2000/svg"><path d="m292.038 504.361c98.547-194.533 68.701-438.429-28.364-502.629-3.49-2.308-8.024-2.308-11.514 0-97.065 64.2-126.911 308.096-28.364 502.629z" fill="#d82e3d"/><path d="m252.17 1.727c-3.409 2.256-6.735 4.733-9.975 7.421 89.034 73.844 113.488 307.506 18.398 495.213h31.445c98.547-194.533 68.701-438.428-28.363-502.629-3.487-2.306-8.018-2.312-11.505-.005z" fill="#c32430"/><path d="m396.04 512h-280.08c-4.219 0-7.639-3.42-7.639-7.639s3.42-7.639 7.639-7.639h280.08c4.219 0 7.639 3.42 7.639 7.639s-3.42 7.639-7.639 7.639z" fill="#f4dd45"/><path d="m168.715 326.483 175.395-175.395c-4.31-22.24-10.164-43.002-17.425-61.793l-163.614 163.614c.302 23.98 2.148 48.644 5.644 73.574z" fill="#dd636e"/><path d="m303.257 112.723c6.092 20.213 10.732 42.187 13.789 65.429l27.064-27.064c-1.096-4.705-5.62-31.244-17.425-61.793z" fill="#da4a54"/></svg>