<svg id="Capa_1" enable-background="new 0 0 512 512" height="512" viewBox="0 0 512 512" width="512" xmlns="http://www.w3.org/2000/svg"><path d="m7.5 336.727c0 5.383 3.926 10.01 9.255 10.772 32.43 4.635 35.5 33.372 73.576 33.372 41.416 0 41.416-34 82.832-34 41.415 0 41.415 34 82.831 34 41.417 0 41.417-34 82.833-34 41.418 0 41.418 34 82.837 34 38.079 0 41.149-28.738 73.582-33.372 5.329-.762 9.255-5.388 9.255-10.772v-193.601c0-6.939-6.408-12.142-13.187-10.663-28.82 6.289-33.169 32.666-69.65 32.666-41.418 0-41.418-34-82.837-34-41.417 0-41.417 34-82.833 34-41.415 0-41.415-34-82.831-34s-41.416 34-82.832 34c-36.478 0-40.827-26.376-69.643-32.665-6.779-1.48-13.187 3.724-13.187 10.663v193.6z" fill="#61a2f9"/><path d="m462.225 148.832c.543-.012 1.091-.021 1.649-.021v214.411c8.417-6.9 17.008-13.658 31.325-15.716 5.345-.768 9.301-5.376 9.301-10.777v-193.604c0-6.974-6.46-12.142-13.271-10.644-12.861 2.829-20.844 9.662-29.004 16.351z" fill="#5490f9"/><g fill="#90d8f9"><path d="m421.663 244.543c-23.393 0-35.497-9.936-46.177-18.703-9.999-8.208-18.635-15.297-36.66-15.297-18.023 0-26.658 7.089-36.657 15.297-10.679 8.767-22.783 18.703-46.176 18.703-23.392 0-35.495-9.937-46.174-18.703-9.998-8.208-18.633-15.297-36.656-15.297s-26.659 7.089-36.657 15.297c-10.679 8.767-22.782 18.703-46.175 18.703s-35.496-9.937-46.175-18.703c-9.998-8.208-18.633-15.297-36.656-15.297-4.143 0-7.5-3.358-7.5-7.5s3.357-7.5 7.5-7.5c23.392 0 35.495 9.937 46.174 18.703 9.998 8.208 18.634 15.297 36.657 15.297s26.659-7.089 36.657-15.297c10.679-8.767 22.782-18.703 46.175-18.703 23.392 0 35.495 9.937 46.174 18.703 9.998 8.208 18.633 15.297 36.656 15.297 18.024 0 26.659-7.089 36.658-15.297 10.679-8.767 22.783-18.703 46.175-18.703 23.394 0 35.498 9.937 46.178 18.703 9.999 8.208 18.635 15.297 36.659 15.297 18.025 0 26.661-7.089 36.66-15.297 10.68-8.767 22.784-18.703 46.177-18.703 4.143 0 7.5 3.358 7.5 7.5s-3.357 7.5-7.5 7.5c-18.024 0-26.66 7.089-36.659 15.297-10.68 8.766-22.784 18.703-46.178 18.703z"/><path d="m421.663 316.457c-23.393 0-35.497-9.936-46.177-18.703-9.999-8.208-18.635-15.297-36.66-15.297-18.023 0-26.658 7.089-36.657 15.297-10.679 8.767-22.783 18.703-46.176 18.703-23.392 0-35.495-9.937-46.174-18.703-9.998-8.208-18.633-15.297-36.656-15.297s-26.659 7.089-36.657 15.297c-10.679 8.767-22.782 18.703-46.175 18.703s-35.496-9.937-46.175-18.703c-9.998-8.208-18.633-15.297-36.656-15.297-4.143 0-7.5-3.358-7.5-7.5s3.357-7.5 7.5-7.5c23.392 0 35.495 9.937 46.174 18.703 9.998 8.208 18.634 15.297 36.657 15.297s26.659-7.089 36.657-15.297c10.679-8.767 22.782-18.703 46.175-18.703 23.392 0 35.495 9.937 46.174 18.703 9.998 8.208 18.633 15.297 36.656 15.297 18.024 0 26.659-7.089 36.658-15.297 10.679-8.767 22.783-18.703 46.175-18.703 23.394 0 35.498 9.937 46.178 18.703 9.999 8.208 18.635 15.297 36.659 15.297 18.025 0 26.661-7.089 36.66-15.297 10.68-8.767 22.784-18.703 46.177-18.703 4.143 0 7.5 3.358 7.5 7.5s-3.357 7.5-7.5 7.5c-18.024 0-26.66 7.089-36.659 15.297-10.68 8.767-22.784 18.703-46.178 18.703z"/></g></svg>